<?xml version="1.0" encoding="UTF-8"?>
<!DOCTYPE svg PUBLIC "-//W3C//DTD SVG 1.1//EN" "http://www.w3.org/Graphics/SVG/1.1/DTD/svg11.dtd">
<svg xmlns="http://www.w3.org/2000/svg" version="1.1" width="32px" height="29px" style="shape-rendering:geometricPrecision; text-rendering:geometricPrecision; image-rendering:optimizeQuality; fill-rule:evenodd; clip-rule:evenodd" xmlns:xlink="http://www.w3.org/1999/xlink">
<g><path style="opacity:0.599" fill="#212221" d="M -0.5,-0.5 C 1.83333,-0.5 4.16667,-0.5 6.5,-0.5C 7.78012,5.45536 9.44679,11.2887 11.5,17C 15.5,17.6667 19.5,17.6667 23.5,17C 24.9606,14.5794 26.2939,12.0794 27.5,9.5C 22.8685,8.67169 18.2018,8.17169 13.5,8C 12.1667,7 12.1667,6 13.5,5C 19.582,4.21238 25.582,4.37905 31.5,5.5C 31.5,6.83333 31.5,8.16667 31.5,9.5C 29.4691,12.5539 27.8024,15.8872 26.5,19.5C 20.5368,20.4959 14.5368,20.8293 8.5,20.5C 7.16036,14.8091 5.66036,9.14242 4,3.5C 2.64387,2.61983 1.14387,2.28649 -0.5,2.5C -0.5,1.5 -0.5,0.5 -0.5,-0.5 Z"/></g>
<g><path style="opacity:0.645" fill="#212221" d="M 11.5,28.5 C 9.83333,28.5 8.16667,28.5 6.5,28.5C 4.81941,25.5219 5.65275,23.5219 9,22.5C 11.8349,23.8194 12.6683,25.8194 11.5,28.5 Z"/></g>
<g><path style="opacity:0.653" fill="#212221" d="M 27.5,28.5 C 26.1667,28.5 24.8333,28.5 23.5,28.5C 22.0765,24.0923 23.5765,22.4256 28,23.5C 28.6397,25.265 28.4731,26.9317 27.5,28.5 Z"/></g>
</svg>
