<?xml version="1.0" encoding="UTF-8"?>
<!DOCTYPE svg PUBLIC "-//W3C//DTD SVG 1.1//EN" "http://www.w3.org/Graphics/SVG/1.1/DTD/svg11.dtd">
<svg xmlns="http://www.w3.org/2000/svg" version="1.1" width="15px" height="15px" style="shape-rendering:geometricPrecision; text-rendering:geometricPrecision; image-rendering:optimizeQuality; fill-rule:evenodd; clip-rule:evenodd" xmlns:xlink="http://www.w3.org/1999/xlink">
<g><path style="opacity:0.798" fill="#bfc0bf" d="M 4.5,-0.5 C 6.5,-0.5 8.5,-0.5 10.5,-0.5C 12.1667,0.5 13.5,1.83333 14.5,3.5C 14.5,5.83333 14.5,8.16667 14.5,10.5C 12.8089,11.8637 11.1423,13.197 9.5,14.5C 8.16667,14.5 6.83333,14.5 5.5,14.5C 2.40819,13.0768 0.408187,10.7435 -0.5,7.5C -0.5,6.83333 -0.5,6.16667 -0.5,5.5C 0.415309,2.91426 2.08198,0.914258 4.5,-0.5 Z M 8.5,5.5 C 10.1897,9.51175 9.52305,10.1784 6.5,7.5C 3.82158,4.47695 4.48825,3.81029 8.5,5.5 Z"/></g>
</svg>
