<?xml version="1.0" encoding="UTF-8"?>
<!DOCTYPE svg PUBLIC "-//W3C//DTD SVG 1.1//EN" "http://www.w3.org/Graphics/SVG/1.1/DTD/svg11.dtd">
<svg xmlns="http://www.w3.org/2000/svg" version="1.1" width="59px" height="51px" style="shape-rendering:geometricPrecision; text-rendering:geometricPrecision; image-rendering:optimizeQuality; fill-rule:evenodd; clip-rule:evenodd" xmlns:xlink="http://www.w3.org/1999/xlink">
<g><path style="opacity:0.959" fill="#f38392" d="M 16.5,-0.5 C 18.8333,-0.5 21.1667,-0.5 23.5,-0.5C 23.5,2.5 23.5,5.5 23.5,8.5C 22.3058,10.4844 22.3058,12.4844 23.5,14.5C 33.8073,7.39996 43.6407,8.06663 53,16.5C 54.0945,18.0779 54.9278,19.7446 55.5,21.5C 56.5934,25.3939 57.2601,29.3939 57.5,33.5C 55.7489,41.583 51.0823,47.2497 43.5,50.5C 39.1667,50.5 34.8333,50.5 30.5,50.5C 25.9854,48.663 22.3187,45.663 19.5,41.5C 18.2134,38.5939 17.2134,35.5939 16.5,32.5C 16.5,27.5 16.5,22.5 16.5,17.5C 16.5,11.5 16.5,5.5 16.5,-0.5 Z M 49.5,25.5 C 47.1695,36.8327 40.5028,40.6661 29.5,37C 25.0974,34.3765 23.4308,30.5432 24.5,25.5C 29.5957,17.1545 36.5957,15.3212 45.5,20C 46.9771,21.8121 48.3104,23.6455 49.5,25.5 Z"/></g>
<g><path style="opacity:0.801" fill="#f1d5d9" d="M 56.5,21.5 C 56.1667,21.5 55.8333,21.5 55.5,21.5C 54.9278,19.7446 54.0945,18.0779 53,16.5C 43.6407,8.06663 33.8073,7.39996 23.5,14.5C 22.3058,12.4844 22.3058,10.4844 23.5,8.5C 33.6067,3.01549 43.1067,4.01549 52,11.5C 54.324,14.4799 55.824,17.8133 56.5,21.5 Z"/></g>
<g><path style="opacity:0.836" fill="#fcbac3" d="M 16.5,17.5 C 16.5,22.5 16.5,27.5 16.5,32.5C 15.1667,31.8333 14.1667,30.8333 13.5,29.5C 10.7674,23.7019 7.76739,18.0353 4.5,12.5C 6.11843,10.684 8.11843,9.3507 10.5,8.5C 12.2753,11.7376 14.2753,14.7376 16.5,17.5 Z"/></g>
<g><path style="opacity:0.817" fill="#f1d8dc" d="M 13.5,29.5 C 14.1667,30.8333 15.1667,31.8333 16.5,32.5C 17.2134,35.5939 18.2134,38.5939 19.5,41.5C 12.8333,38.1667 6.16667,34.8333 -0.5,31.5C -0.5,30.8333 -0.5,30.1667 -0.5,29.5C 0.421196,28.019 1.58786,26.6856 3,25.5C 6.57632,26.7078 10.0763,28.0411 13.5,29.5 Z"/></g>
<g><path style="opacity:0.781" fill="#f2d3d7" d="M 24.5,25.5 C 23.4308,30.5432 25.0974,34.3765 29.5,37C 40.5028,40.6661 47.1695,36.8327 49.5,25.5C 50.9593,37.8786 45.2926,43.7119 32.5,43C 25.2494,39.0143 22.5827,33.181 24.5,25.5 Z"/></g>
<g><path style="opacity:1" fill="#f9a6b1" d="M 55.5,21.5 C 55.8333,21.5 56.1667,21.5 56.5,21.5C 57.1667,22.8333 57.8333,24.1667 58.5,25.5C 58.5,28.1667 58.5,30.8333 58.5,33.5C 58.1667,33.5 57.8333,33.5 57.5,33.5C 57.2601,29.3939 56.5934,25.3939 55.5,21.5 Z"/></g>
</svg>
