<?xml version="1.0" encoding="UTF-8"?>
<!DOCTYPE svg PUBLIC "-//W3C//DTD SVG 1.1//EN" "http://www.w3.org/Graphics/SVG/1.1/DTD/svg11.dtd">
<svg xmlns="http://www.w3.org/2000/svg" version="1.1" width="56px" height="12px" style="shape-rendering:geometricPrecision; text-rendering:geometricPrecision; image-rendering:optimizeQuality; fill-rule:evenodd; clip-rule:evenodd" xmlns:xlink="http://www.w3.org/1999/xlink">
<g><path style="opacity:0.755" fill="#e3af47" d="M 4.5,-0.5 C 4.83333,-0.5 5.16667,-0.5 5.5,-0.5C 7.22053,3.17372 10.2205,4.50705 14.5,3.5C 14.4326,2.04125 14.7659,0.707917 15.5,-0.5C 15.8333,-0.5 16.1667,-0.5 16.5,-0.5C 18.2887,3.49522 21.2887,4.49522 25.5,2.5C 26.1272,1.58317 26.4606,0.583168 26.5,-0.5C 26.8333,-0.5 27.1667,-0.5 27.5,-0.5C 29.5039,3.17137 32.5039,4.17137 36.5,2.5C 37.1272,1.58317 37.4606,0.583168 37.5,-0.5C 38.1667,-0.5 38.8333,-0.5 39.5,-0.5C 39.6273,2.27211 41.1273,3.60544 44,3.5C 46.8332,3.46254 48.6665,2.12921 49.5,-0.5C 49.8333,-0.5 50.1667,-0.5 50.5,-0.5C 50.7868,2.48406 52.4535,3.81739 55.5,3.5C 55.5,4.16667 55.5,4.83333 55.5,5.5C 53.7202,6.98989 53.0535,8.98989 53.5,11.5C 52.8333,11.5 52.1667,11.5 51.5,11.5C 50.5,10.1667 49.5,10.1667 48.5,11.5C 47.5,11.5 46.5,11.5 45.5,11.5C 44.5,3.5 43.5,3.5 42.5,11.5C 41.8333,11.5 41.1667,11.5 40.5,11.5C 39.1667,10.1667 37.8333,10.1667 36.5,11.5C 35.8333,11.5 35.1667,11.5 34.5,11.5C 33.5,3.5 32.5,3.5 31.5,11.5C 30.5,11.5 29.5,11.5 28.5,11.5C 27.5,10.1667 26.5,10.1667 25.5,11.5C 24.8333,11.5 24.1667,11.5 23.5,11.5C 23.8186,9.2495 23.3186,7.2495 22,5.5C 21.1667,6.33333 20.3333,7.16667 19.5,8C 20.3366,9.01127 20.67,10.1779 20.5,11.5C 19.5,11.5 18.5,11.5 17.5,11.5C 16.5,10.1667 15.5,10.1667 14.5,11.5C 13.8333,11.5 13.1667,11.5 12.5,11.5C 12.8841,9.33515 12.2174,7.66848 10.5,6.5C 8.24585,7.71397 7.91251,9.38063 9.5,11.5C 8.5,11.5 7.5,11.5 6.5,11.5C 5.5,10.1667 4.5,10.1667 3.5,11.5C 2.83333,11.5 2.16667,11.5 1.5,11.5C 1.87988,9.30202 1.21321,7.63535 -0.5,6.5C -0.5,5.5 -0.5,4.5 -0.5,3.5C 2.34399,3.65735 4.01065,2.32402 4.5,-0.5 Z"/></g>
</svg>
